<svg width="90" height="30" viewBox="0 0 90 30" fill="none" xmlns="http://www.w3.org/2000/svg">
<g clip-path="url(#clip0_183_6040)">
<path d="M5.62317 12.0638L3.29853 23.1115H0L2.32463 12.0588H5.62317V12.0638Z" fill="black"/>
<path d="M8.24619 14.6844C8.46153 13.7166 8.61324 12.7686 8.7258 12.0639H11.8971C11.809 12.6793 11.7258 13.2749 11.5937 13.8903H11.6377C12.2715 13.1628 13.0547 12.5849 13.9324 12.1974C14.81 11.8098 15.7607 11.6219 16.7176 11.647C18.6703 11.647 21.4697 12.724 20.7356 16.3122L19.3017 23.1165H16.0031L17.2413 17.2602C17.8041 14.5305 16.6981 13.8903 15.1124 13.8903C13.3995 13.8903 11.4664 15.1013 10.9036 17.7862L9.78779 23.1116H6.48926L8.24619 14.6844Z" fill="black"/>
<path d="M24.3136 14.6844C24.5289 13.7166 24.6806 12.7686 24.7932 12.0639H27.9644C27.8764 12.6793 27.7932 13.2749 27.661 13.8903H27.7051C28.3389 13.1628 29.1221 12.5849 29.9997 12.1974C30.8774 11.8098 31.8281 11.6219 32.785 11.647C34.7377 11.647 37.537 12.724 36.8029 16.3122L35.369 23.1165H32.0705L33.3087 17.2602C33.8715 14.5305 32.7654 13.8903 31.1798 13.8903C29.4669 13.8903 27.5338 15.1013 26.971 17.7862L25.8649 23.1116H22.5664L24.3136 14.6844Z" fill="black"/>
<path d="M53.2704 17.5876C52.639 20.6249 50.471 23.5333 44.9359 23.5333C39.4009 23.5333 38.4465 20.6299 39.073 17.5876C39.7239 14.5502 41.8968 11.6418 47.4319 11.6418C52.9669 11.6418 53.9213 14.5502 53.2704 17.5876ZM42.5036 17.5876C42.0681 19.7465 42.8707 21.419 45.3666 21.419C47.8625 21.419 49.4041 19.7465 49.8397 17.5876C50.2948 15.4286 49.4726 13.7561 46.9767 13.7561C44.4808 13.7561 42.9588 15.4286 42.5036 17.5876Z" fill="black"/>
<path d="M59.0654 12.0637L61.39 20.6498L67.3166 12.0637H70.8354L62.7799 23.1164H58.6543L55.2236 12.0637H59.0654Z" fill="black"/>
<path d="M82.9234 21.022C82.7716 21.7466 82.664 22.367 82.5759 23.1115H79.5367C79.5856 22.6007 79.6657 22.0935 79.7765 21.5928C78.2101 22.9033 76.2271 23.5912 74.1974 23.5284C70.3752 23.5284 69.4209 21.7218 69.7684 20.1386C70.4829 16.6844 73.8695 16.0888 78.0392 16.0888H80.6672C81.0783 14.1284 79.8206 13.6222 78.1713 13.6222C76.5661 13.6222 75.4992 14.3071 75.1958 15.1607H71.7651C72.6754 12.3219 75.8467 11.637 78.6656 11.637C81.7243 11.637 84.6999 12.5154 83.8972 16.3915L82.9234 21.022ZM77.54 18.074C75.0441 18.074 73.522 18.6001 73.2431 19.9252C73.0914 20.6746 73.4829 21.6871 75.372 21.6871C77.0017 21.6871 79.6493 20.7193 80.2561 18.079H77.54V18.074Z" fill="black"/>
<path d="M4.68364 10.7635C5.87831 10.7635 6.84677 9.74136 6.84677 8.4805C6.84677 7.21964 5.87831 6.19751 4.68364 6.19751C3.48898 6.19751 2.52051 7.21964 2.52051 8.4805C2.52051 9.74136 3.48898 10.7635 4.68364 10.7635Z" fill="black"/>
<path d="M39.1326 21.9302C35.3692 25.4639 35.3594 25.4688 35.3594 25.4688L40.0723 22.8483C39.7111 22.5972 39.3935 22.2869 39.1326 21.9302V21.9302Z" fill="#0070CD"/>
<path d="M48.8955 7.47794C49.115 8.75148 48.9155 10.0629 48.3278 11.2101C50.5839 11.3293 52.0374 11.9447 52.9085 12.8628C57.0586 8.95196 59.7894 5.10065 58.1402 2.44047C56.7454 0.177332 52.3212 -0.547269 46.7813 0.415558C44.6769 0.782822 42.6948 1.16994 40.8498 1.56698C36.3669 2.67373 31.9428 4.00879 27.915 5.34881C34.1304 3.95916 47.5447 1.68113 48.8955 7.47794Z" fill="#0070CD"/>
<path d="M38.0653 28.9479C38.1583 29.2307 38.3834 29.4144 38.9168 29.4144C39.4209 29.4144 39.5628 29.2605 39.5628 29.0471C39.5628 28.8188 39.416 28.6947 38.7309 28.5756C37.6101 28.3821 37.4046 28.0098 37.4046 27.5731C37.4046 26.918 38.0261 26.5854 38.7896 26.5854C39.9005 26.5854 40.199 27.1661 40.2382 27.5433H39.4503C39.4062 27.3795 39.2986 27.1612 38.7651 27.1612C38.3932 27.1612 38.2023 27.2803 38.2023 27.4937C38.2023 27.6823 38.3344 27.7766 38.9413 27.8907C40.1697 28.1141 40.3606 28.4913 40.3606 28.9677C40.3606 29.5385 39.9201 29.995 38.8385 29.995C37.8255 29.995 37.3703 29.5385 37.2725 28.9479H38.0653V28.9479Z" fill="#0070CD"/>
<path d="M46.2677 28.2779C46.2759 28.5127 46.2351 28.7466 46.148 28.9644C46.0609 29.1821 45.9294 29.3787 45.7621 29.5412C45.5948 29.7038 45.3956 29.8288 45.1774 29.9078C44.9593 29.9869 44.7271 30.0183 44.4961 30.0001C44.2685 30.0153 44.0403 29.9816 43.8264 29.9011C43.6126 29.8206 43.4179 29.6952 43.2552 29.533C43.0926 29.3709 42.9655 29.1756 42.8825 28.9602C42.7995 28.7447 42.7623 28.5139 42.7734 28.2829C42.7715 28.052 42.8163 27.8232 42.905 27.6106C42.9936 27.3979 43.1243 27.2059 43.2889 27.0464C43.4535 26.8869 43.6486 26.7633 43.8621 26.6832C44.0756 26.6031 44.303 26.5682 44.5303 26.5806C44.757 26.5652 44.9843 26.5981 45.1977 26.6772C45.4111 26.7562 45.6058 26.8796 45.7694 27.0394C45.933 27.1992 46.0618 27.3919 46.1476 27.6052C46.2334 27.8185 46.2743 28.0477 46.2677 28.2779V28.2779ZM43.6005 28.273C43.6005 28.8933 43.9088 29.3797 44.5401 29.3797C45.191 29.3797 45.4406 28.8238 45.4406 28.2878C45.4406 27.7072 45.1617 27.2009 44.5059 27.2009C43.8794 27.2009 43.6005 27.7171 43.6005 28.273Z" fill="#0070CD"/>
<path d="M48.8564 26.6501H49.6395V29.2905H51.4502L51.3475 29.9257H48.8564V26.6501Z" fill="#0070CD"/>
<path d="M54.5526 26.6501V28.5063C54.5526 29.2011 54.9147 29.3798 55.3111 29.3798C55.732 29.3798 56.0159 29.1962 56.0159 28.5063V26.6501H56.7989V28.5311C56.7989 29.5237 56.2459 30.0002 55.2867 30.0002C54.3568 30.0002 53.7646 29.5684 53.7646 28.551V26.6551H54.5526V26.6501Z" fill="#0070CD"/>
<path d="M60.3717 27.2854H59.2314V26.6501H62.2902V27.2854H61.1548V29.9307H60.3717V27.2854Z" fill="#0070CD"/>
<path d="M65.5203 26.6501V29.9307H64.7373V26.6501H65.5203Z" fill="#0070CD"/>
<path d="M71.6378 28.2779C71.646 28.5127 71.6052 28.7466 71.5181 28.9644C71.431 29.1821 71.2995 29.3787 71.1322 29.5412C70.965 29.7038 70.7657 29.8288 70.5475 29.9078C70.3294 29.9869 70.0972 30.0183 69.8662 30.0001C69.6386 30.0153 69.4104 29.9816 69.1965 29.9011C68.9827 29.8206 68.788 29.6952 68.6254 29.533C68.4627 29.3709 68.3357 29.1756 68.2526 28.9602C68.1696 28.7447 68.1324 28.5139 68.1435 28.2829C68.1417 28.052 68.1864 27.8232 68.2751 27.6106C68.3637 27.3979 68.4944 27.2059 68.659 27.0464C68.8236 26.8869 69.0187 26.7633 69.2322 26.6832C69.4457 26.6031 69.6731 26.5682 69.9005 26.5806C70.1271 26.5652 70.3544 26.5981 70.5678 26.6772C70.7812 26.7562 70.9759 26.8796 71.1395 27.0394C71.3031 27.1992 71.4319 27.3919 71.5177 27.6052C71.6036 27.8185 71.6445 28.0477 71.6378 28.2779V28.2779ZM68.9706 28.273C68.9706 28.8933 69.2789 29.3797 69.9102 29.3797C70.5611 29.3797 70.8107 28.8238 70.8107 28.2878C70.8107 27.7072 70.5318 27.2009 69.876 27.2009C69.2496 27.2009 68.9706 27.7171 68.9706 28.273Z" fill="#0070CD"/>
<path d="M74.2266 29.9307V26.6501H75.1564C76.0667 28.0547 76.4288 28.5659 76.6295 28.958H76.6393C76.6099 28.6155 76.6099 28.0001 76.6099 27.4591V26.6501H77.3293V29.9307H76.4582C76.1548 29.4443 75.1173 27.8115 74.9264 27.4393H74.9166C74.946 27.8462 74.946 28.3078 74.946 28.8934V29.9307H74.2266Z" fill="#0070CD"/>
<path d="M80.6034 28.9479C80.6964 29.2307 80.9215 29.4144 81.4549 29.4144C81.959 29.4144 82.1009 29.2605 82.1009 29.0471C82.1009 28.8188 81.9541 28.6947 81.2689 28.5756C80.1482 28.3821 79.9427 28.0098 79.9427 27.5731C79.9427 26.918 80.5642 26.5854 81.3277 26.5854C82.4386 26.5854 82.7371 27.1661 82.7763 27.5433H81.9884C81.9443 27.3795 81.8366 27.1612 81.3032 27.1612C80.9313 27.1612 80.7404 27.2803 80.7404 27.4937C80.7404 27.6823 80.8725 27.7766 81.4794 27.8907C82.7078 28.1141 82.8986 28.4913 82.8986 28.9677C82.8986 29.5385 82.4582 29.995 81.3766 29.995C80.3636 29.995 79.9084 29.5385 79.8105 28.9479H80.6034V28.9479Z" fill="#0070CD"/>
<path d="M86.3201 21.7416H85.5762V21.3843H87.5093V21.7416H86.7703V23.5333H86.3249V21.7416H86.3201ZM87.6953 21.3843H88.4098L88.8404 22.9576L89.3054 21.3843H90.0003V23.5333H89.5647V21.687L89.0117 23.5333H88.6496L88.1015 21.687V23.5333H87.6953V21.3843Z" fill="black"/>
</g>
<defs>
<clipPath id="clip0_183_6040">
<rect width="90" height="30" fill="white"/>
</clipPath>
</defs>
</svg>
